PathFileType	4	(X/Y/Z)	T1_P1_NoVision_NoMovement_0_0-649.trc
DataRate	CameraRate	NumFrames	NumMarkers	Units	OrigDataRate	OrigDataStartFrame	OrigNumFrames
60	60	7	27	m	60	0	649
Frame#	Time	RHip			RKnee			RAnkle			RBigToe			RSmallToe			RHeel			LHip			LKnee			LAnkle			LBigToe			LSmallToe			LHeel			Neck			Head			Nose			RShoulder			RElbow			RWrist			RThumb			RIndex			RPinky			LShoulder			LElbow			LWrist			LThumb			LIndex			LPinky		
		X1	Y1	Z1	X2	Y2	Z2	X3	Y3	Z3	X4	Y4	Z4	X5	Y5	Z5	X6	Y6	Z6	X7	Y7	Z7	X8	Y8	Z8	X9	Y9	Z9	X10	Y10	Z10	X11	Y11	Z11	X12	Y12	Z12	X13	Y13	Z13	X14	Y14	Z14	X15	Y15	Z15	X16	Y16	Z16	X17	Y17	Z17	X18	Y18	Z18	X19	Y19	Z19	X20	Y20	Z20	X21	Y21	Z21	X22	Y22	Z22	X23	Y23	Z23	X24	Y24	Z24	X25	Y25	Z25	X26	Y26	Z26	X27	Y27	Z27
1	0.016666666666666666	-71.08001882255088	3815.531345938621	-509.32587480476207	299.60429700666697	3959.6721518810973	-509.2849573935464	645.6334467063476	4156.617472864838	-532.1744458651381	733.2494378725592	4042.1500825026737	-517.0148740883932	739.179058758873	4079.4609657522424	-611.1824831546365	669.2089649384048	4175.684980148092	-517.6576159540443	-104.38260526567721	3910.424414778132	-341.1675521516429	260.64970419896935	4025.5828760371032	-335.34844650501077	603.961414737852	4253.191679830049	-358.9046497169105	678.389029034023	4134.614349039972	-237.46664948290814	653.0279186404454	4232.758852729008	-226.27365064711037	638.5852230368521	4298.734101967321	-387.9832204767205	-627.6279542001904	3676.2800829676385	-450.684002446188	-865.7143487599097	3466.6288916509084	-353.5678739940231	-696.8641566153781	3499.5463866137884	-298.2344630047982	-556.7919489353907	3608.7490367511	-563.2199571781395	-297.11801550459137	3784.8659962990146	-703.8108309603545	-34.389500690328546	3675.2221523144826	-599.706521604656	87.27088346631102	3768.6677161175785	-568.1137506980083	108.6348061549593	3746.117543624351	-569.0381323651212	90.80350346793432	3786.0118989866487	-601.9179515102178	-615.6165372474954	3823.5573214664732	-342.7395136465483	-374.2762725101417	3968.068434549822	-290.16082122858177	-131.8854246902322	3950.581373144706	-209.06556953501268	-7.794164717286443	3971.2976630521603	-215.6998326857422	11.458134420475774	3990.6754659804933	-203.4754590377577	-10.525753932047765	4002.889800277231	-195.44075050436663
2	0.03333333333333333	-71.03644638797957	3815.7722543283508	-509.40517904992805	305.5907767860249	3964.3080647212096	-511.7828495653797	634.790077137903	4122.783644322202	-525.8498399057648	737.3228443697783	4064.4152577332834	-532.4304314292826	731.8349926390275	4073.8137655384494	-608.676006088799	668.7990628531209	4174.7388562462265	-517.2029190087676	-104.39193029703053	3910.6038138177346	-341.1785873599474	255.29335219681676	4022.833528591579	-335.98291556654726	610.6463803300486	4257.842420601138	-360.81274673772157	679.1050429297509	4158.337315523745	-258.6595511440758	663.5494412001805	4255.352647549467	-239.58129459248133	644.1885794541863	4297.275764891342	-386.71032320342647	-627.6833319105993	3676.394104992145	-450.8216465436648	-865.4049245665261	3465.3941953116023	-347.4970822850563	-696.6341361618041	3499.8882794574374	-298.22691561170836	-556.8112492589411	3608.7795103614503	-563.0954444226536	-289.7454630350802	3743.23447433579	-682.6825477274655	-29.136704968748326	3678.213693513707	-601.191944828845	87.20090317851665	3768.670344774855	-568.0611371882334	108.0851200588017	3746.0163046163657	-563.6978575042268	90.2729305701988	3759.187157856991	-595.5228236221363	-615.8203393322138	3823.64146899671	-342.93167303653195	-380.0213837112051	3965.9601290795354	-290.7031475702423	-142.40574321011547	3944.6677307231143	-208.2213190669318	-13.10450665515413	3970.666394162861	-215.9608106605499	6.053115996574251	3988.511091482103	-204.11353558224678	-10.960359109089865	4002.2405627553053	-195.08262023583524
3	0.05	-71.15840074078461	3815.7375293491914	-509.33512498729164	304.67969501726475	3963.6994378836184	-505.12788728678686	635.9253679988102	4126.010181671452	-525.7140390009484	727.0666255455158	4033.771054372609	-525.2527051573092	737.6084211952846	4077.8475721109676	-611.0659793711909	663.4505267073805	4174.485340716711	-517.5483206213526	-104.98871115881283	3891.707446352096	-328.23224493743254	255.46244182073275	4023.1261670326353	-336.004719482851	610.6450135119067	4257.642983613058	-360.9049669189397	679.2024832729021	4158.416740853307	-258.87725369984514	663.6699961679411	4255.35123215156	-239.64749608268215	639.58972724565	4264.4617225552365	-380.73062780761256	-627.6883355051725	3676.3141410414664	-450.75503574659	-868.5736499226923	3480.4935112604694	-359.65244114862736	-696.6252898571921	3499.729205402956	-298.21274440603565	-556.8218396704294	3608.7113495700796	-563.0382785073073	-294.6224141974515	3740.1264271442956	-681.2461023058635	-34.603734582647405	3674.830777752343	-599.5020480579082	81.90299018082463	3766.1414078898306	-568.1484296648595	103.31577555492005	3742.3579588239368	-567.0495128952618	90.23046424311386	3758.9700724135632	-595.4414797529935	-615.7521350126676	3823.5546438423276	-342.77947670993177	-379.8671561404097	3966.0104848558312	-290.5137771622453	-142.38940321680116	3944.7865714021623	-208.21798342584674	-17.986701600482547	3966.8522612757174	-214.54770029532204	5.9036623814589895	3988.733033064538	-204.3533899321226	-15.80682906351548	3999.0760404903303	-193.95933699109298
4	0.06666666666666667	-71.07847944380704	3815.5895308764607	-509.3895368688092	305.7698449138387	3964.375255786155	-511.9544525426643	646.8330740864226	4161.012716429705	-534.8098521983331	732.8555819339979	4042.8859566457395	-517.3748648078531	738.4290702206505	4078.860322943883	-611.0841565505627	663.5836471607304	4175.536662516404	-517.9392708488333	-104.90162978127245	3891.618712424474	-328.25428483891346	261.05243615234235	4026.0448200301216	-335.55970573906694	610.6976262978831	4257.991261423476	-360.8979618203795	683.670472763917	4161.618103159447	-251.86660246983544	653.047161301493	4232.823917079916	-226.34146970628356	644.2019118213974	4297.201774378544	-386.76239733583975	-627.6029918838815	3676.177206340129	-450.71056975507673	-868.6540758821494	3480.827959796444	-359.93234877847465	-696.6374480690693	3499.8316617085234	-298.24148626736144	-556.7892257769897	3608.5657257454345	-563.0734545715854	-289.7344743164565	3743.3103149858175	-682.6339024611462	-30.052109319774445	3660.8346578367773	-587.0506263991022	82.05039979855393	3766.188135902657	-568.1546147382517	108.76460732171044	3745.6906613245983	-568.7178913966372	96.34609638753102	3762.5517324421835	-597.3240071327679	-615.6405156947347	3823.3028619105644	-342.69337510567533	-379.8959916287452	3965.9226130000307	-290.5543237956406	-142.68430213508242	3925.9374905305344	-196.05912954616645	-13.080725426821354	3970.265576489921	-215.83309697565647	6.1509215509815895	3988.2608060281696	-204.0360422210609	-10.749563972420827	4030.279675228668	-199.64249808948688
5	0.08333333333333333	-71.11311449980909	3815.2712329320657	-509.1378561579118	305.64969193066713	3964.186608884831	-511.7478514818592	635.9783793553357	4125.691211045187	-525.5077799561864	732.7899704125713	4063.9608865964146	-532.2105614492757	738.2827329092081	4078.2318673833765	-610.9657126445583	663.508949617984	4174.301655033498	-517.3643897255885	-104.8739881828584	3891.5247486483163	-328.1561991420905	261.038594282585	4026.0880105674214	-335.52670471389644	610.90593986841	4258.080947132423	-360.8275578157265	678.2245525186149	4157.780036927454	-252.42153171809636	658.356702019986	4256.315936650192	-240.41326265528573	644.414090016409	4296.791347356786	-386.4553444554873	-627.6754858376199	3676.2009298318426	-450.7223610241035	-868.6687286392417	3480.6033848366997	-359.7132615000886	-696.6496619797837	3499.734692655011	-298.2597564127182	-556.7755834642948	3608.524998597634	-563.0939937529027	-289.72674130737636	3743.243870567022	-682.5013906817798	-29.11664918321994	3678.109206008712	-601.1609329409232	82.04072719940923	3766.6895071833424	-568.5209453451746	108.04947321382812	3746.1524261638174	-563.8193335880195	90.37515433976552	3759.582547822777	-595.7771684905844	-615.6549515145919	3823.372635322252	-342.72071165901247	-379.9397324144253	3965.990073781805	-290.5056513228214	-137.24510291534867	3948.4913388211735	-209.58761207441017	-13.007171760577535	3970.7093668612233	-215.83692349996855	6.290894521538423	3988.4300386905834	-204.00689499095944	-10.58318056466182	4030.92410921213	-199.83220570499188
6	0.1	-70.42219408401	3816.1155809784245	-515.664471622565	305.70820397286195	3964.2884282871846	-511.92825787056705	639.2496337376747	4152.535140733394	-532.2939088822866	727.7551458767374	4011.3393626657694	-509.5392180493569	738.3176480999684	4078.348849691043	-611.0484134779305	669.0836957258563	4174.721955838209	-516.9288826838574	-104.84910605781337	3891.5604415246917	-328.23495258633386	260.9220259872627	4025.694018362819	-335.4003232054229	610.8019793071284	4258.284571041423	-360.7780997149883	683.6711644388739	4161.422737689392	-252.00483189802588	659.123613277953	4235.708093534804	-225.39927849614034	644.3560112174548	4297.387459719934	-386.48505214749207	-627.6383295060817	3676.1534326963956	-450.70890707295274	-868.5696916204907	3480.652307493696	-359.735403047046	-696.6962650768986	3500.155193803055	-298.3252351751102	-556.7854845848472	3608.567686841929	-563.1717764689403	-289.68783519421453	3743.376567770126	-682.6655731535692	-34.130171730457	3676.1886695033545	-601.6362587872258	82.16767345965874	3766.6859220007286	-568.4966846881185	108.17457434277834	3746.0346641634	-563.5711881167088	90.46817386876593	3759.489347768448	-595.8661568261937	-615.7070138706323	3823.3155557883215	-342.70887340336577	-384.4134246268487	3962.7266793439276	-289.3619964845826	-137.32634000452668	3948.507286956035	-209.62453463563014	-13.04272196032287	3970.674578867103	-215.9359341801009	6.166429998700028	3988.460542344033	-204.06490882526958	-10.941803068923635	4030.27274598792	-199.48415168923975
7	0.11666666666666667	-70.44974624722988	3816.071437965609	-515.5810085033596	305.82342382715	3964.7556581431013	-512.2211749362324	641.369216588758	4125.650099738982	-525.0499055817003	727.0625663923466	4011.747029252814	-509.9206152013128	737.574671240096	4077.696469051078	-610.9664966253877	669.0843429437217	4174.340591329799	-516.900173250659	-104.99344805649842	3891.4753091932375	-328.2327682312559	255.41228422223656	4022.893201645307	-336.04132224827543	603.8012020009301	4252.876679843325	-358.54146791724787	674.6195857567118	4129.320849085248	-254.51332795756892	648.8177203770324	4202.816363976592	-221.99961499164723	644.2086726767606	4297.160733354523	-386.4321182031099	-627.6172394895956	3676.1962046731296	-450.72160328161857	-868.5582727877337	3480.7220909272314	-359.81949040817926	-696.6814977447867	3500.235207922759	-298.38397114800864	-556.7839366391546	3608.512980467086	-563.114779470532	-289.7572561182968	3743.2893105656067	-682.5921028978552	-29.131963770962138	3678.319011382508	-601.2676006719622	82.04593418246068	3766.8365925251237	-568.5812572092154	103.25595213343034	3746.246903693876	-564.2066073315003	90.28572793749345	3759.3833856497627	-595.6347508799404	-615.7003419749695	3823.307885690061	-342.6899145797802	-379.9643693515248	3965.914868155701	-290.63996242754695	-142.34571498611353	3947.9093906063763	-209.89910331693866	-12.906592200897931	3970.7106437803864	-216.10435378826696	11.631524179966528	3990.2853058146666	-203.4289996486188	-10.847601428067783	4003.0253104387702	-195.35072477425192
